<svg xmlns="http://www.w3.org/2000/svg" x="0px" y="0px" width="24" height="24" viewBox="0 0 172 172" style=" fill:#000000;">
            <g fill="none" fill-rule="nonzero" stroke="none" stroke-width="1" stroke-linecap="butt" stroke-linejoin="miter" stroke-miterlimit="10" stroke-dasharray="" stroke-dashoffset="0" font-family="none" font-weight="none" font-size="none" text-anchor="none" style="mix-blend-mode: normal">
              <path d="M0,172v-172h172v172z" fill="none" stroke="none"></path>
              <g id="original-icon" fill="#000000" stroke="none" opacity="0" visibility="hidden">
                <path d="M86,0c-21.99099,0 -39.69231,17.70132 -39.69231,39.69231v26.46154c-14.54868,0 -26.46154,11.91286 -26.46154,26.46154v52.92308c0,14.54868 11.91286,26.46154 26.46154,26.46154h79.38462c14.54868,0 26.46154,-11.91286 26.46154,-26.46154v-52.92308c0,-14.54868 -11.91286,-26.46154 -26.46154,-26.46154v-26.46154c0,-21.99099 -17.70132,-39.69231 -39.69231,-39.69231zM86,13.23077c15.06551,0 26.46154,11.39603 26.46154,26.46154v26.46154h-52.92308v-26.46154c0,-15.06551 11.39603,-26.46154 26.46154,-26.46154zM86,99.23077c7.28726,0 13.23077,5.94351 13.23077,13.23077c0,4.6256 -2.63581,9.17368 -6.61538,11.16346v15.29808c0,3.97957 -2.63581,6.61538 -6.61538,6.61538c-3.97956,0 -6.61538,-2.63581 -6.61538,-6.61538v-15.29808c-3.97956,-1.98978 -6.61538,-6.53786 -6.61538,-11.16346c0,-7.28726 5.94351,-13.23077 13.23077,-13.23077z"></path>
              </g>
              <g id="subtracted-icon" fill="#000000" stroke="none">
                <path d="M125.69231,39.69231v26.46154c14.54868,0 26.46154,11.91286 26.46154,26.46154v52.92308c0,14.54868 -11.91286,26.46154 -26.46154,26.46154h-79.38462c-14.54868,0 -26.46154,-11.91286 -26.46154,-26.46154v-52.92308c0,-14.54868 11.91286,-26.46154 26.46154,-26.46154v-26.46154c0,-21.99099 17.70132,-39.69231 39.69231,-39.69231c21.99099,0 39.69231,17.70132 39.69231,39.69231zM59.53846,39.69231v26.46154h15.84128c-9.35168,1.67558 -16.09403,9.55874 -16.09403,19.51647v6.61538h-6.61538c-11.24615,0 -19.84615,8.6 -19.84615,19.84615v13.23077c0,11.24615 8.6,19.84615 19.84615,19.84615h6.61538v6.61538c0,11.24615 8.6,19.84615 19.84615,19.84615h13.23077c11.24615,0 19.84615,-8.6 19.84615,-19.84615v-6.61538h6.61538c11.24615,0 19.84615,-8.6 19.84615,-19.84615v-13.23077c0,-11.24615 -8.6,-19.84615 -19.84615,-19.84615h-6.61538v-6.61538c0,-9.95773 -6.74235,-17.84089 -16.09403,-19.51647h16.34679v-26.46154c0,-15.06551 -11.39603,-26.46154 -26.46154,-26.46154c-15.06551,0 -26.46154,11.39603 -26.46154,26.46154z"></path>
              </g>
              <g stroke="none">
                <g id="Windows_x5F_8" fill="#7c7c7c">
                  <path d="M118.82417,105.51647h-19.84615v-19.84615c0,-3.96923 -2.64615,-6.61538 -6.61538,-6.61538h-13.23077c-3.96923,0 -6.61538,2.64615 -6.61538,6.61538v19.84615h-19.84615c-3.96923,0 -6.61538,2.64615 -6.61538,6.61538v13.23077c0,3.96923 2.64615,6.61538 6.61538,6.61538h19.84615v19.84615c0,3.96923 2.64615,6.61538 6.61538,6.61538h13.23077c3.96923,0 6.61538,-2.64615 6.61538,-6.61538v-19.84615h19.84615c3.96923,0 6.61538,-2.64615 6.61538,-6.61538v-13.23077c0,-3.96923 -2.64615,-6.61538 -6.61538,-6.61538z"></path>
                </g>
                <g id="Windows_x5F_8" fill="#000000" opacity="0">
                  <path d="M118.82417,92.2857h-6.61538v-6.61538c0,-11.24615 -8.6,-19.84615 -19.84615,-19.84615h-13.23077c-11.24615,0 -19.84615,8.6 -19.84615,19.84615v6.61538h-6.61538c-11.24615,0 -19.84615,8.6 -19.84615,19.84615v13.23077c0,11.24615 8.6,19.84615 19.84615,19.84615h6.61538v6.61538c0,11.24615 8.6,19.84615 19.84615,19.84615h13.23077c11.24615,0 19.84615,-8.6 19.84615,-19.84615v-6.61538h6.61538c11.24615,0 19.84615,-8.6 19.84615,-19.84615v-13.23077c0,-11.24615 -8.6,-19.84615 -19.84615,-19.84615z"></path>
                </g>
              </g>
              <path d="M46.05494,158.43955v-79.38462h79.38462v79.38462z" id="overlay-drag" fill="#ff0000" stroke="none" opacity="0"></path>
            </g>
          </svg>