<svg xmlns="http://www.w3.org/2000/svg" x="0px" y="0px"
width="24" height="24"
viewBox="0 0 172 172"
style=" fill:#000000;"><g fill="none" fill-rule="nonzero" stroke="none" stroke-width="1" stroke-linecap="butt" stroke-linejoin="miter" stroke-miterlimit="10" stroke-dasharray="" stroke-dashoffset="0" font-family="none" font-weight="none" font-size="none" text-anchor="none" style="mix-blend-mode: normal"><path d="M0,172v-172h172v172z" fill="none"></path><path d="M0,172v-172h172v172z" fill="#000000"></path><g fill="#ffffff"><path d="M88.47527,37.26667l-57.62448,57.62448l50.01203,50.01203l57.62448,-57.62448v-50.01203zM118.65952,48.59683c4.69069,0 8.49762,3.80693 8.49762,8.49762c0,4.69069 -3.80693,8.49762 -8.49762,8.49762c-4.69069,0 -8.49762,-3.80693 -8.49762,-8.49762c0,-4.69069 3.80693,-8.49762 8.49762,-8.49762zM127.15714,110.9127v16.99524h-16.99524v11.33016h16.99524v16.99524h11.33016v-16.99524h16.99524v-11.33016h-16.99524v-16.99524z"></path></g></g></svg>