<svg xmlns="http://www.w3.org/2000/svg" x="0px" y="0px"
width="24" height="24"
viewBox="0 0 172 172"
style=" fill:#000000;"><g fill="none" fill-rule="nonzero" stroke="none" stroke-width="1" stroke-linecap="butt" stroke-linejoin="miter" stroke-miterlimit="10" stroke-dasharray="" stroke-dashoffset="0" font-family="none" font-weight="none" font-size="none" text-anchor="none" style="mix-blend-mode: normal"><path d="M0,172v-172h172v172z" fill="#000000" stroke="none"></path><g id="original-icon" fill="#ffffff" stroke="none" opacity="0" visibility="hidden"><path d="M35.83333,14.33333c-7.88333,0 -14.33333,6.45 -14.33333,14.33333v114.66667c0,7.88333 6.45,14.33333 14.33333,14.33333h61.23861c7.88448,8.76864 19.26994,14.33333 31.92806,14.33333c23.66336,0 43,-19.33664 43,-43c0,-21.21609 -15.56356,-38.90011 -35.83333,-42.34212v-57.99121c0,-7.88333 -6.45,-14.33333 -14.33333,-14.33333zM129,100.33333c15.91705,0 28.66667,12.74961 28.66667,28.66667c0,15.91705 -12.74961,28.66667 -28.66667,28.66667c-15.91705,0 -28.66667,-12.74961 -28.66667,-28.66667c0,-15.91705 12.74961,-28.66667 28.66667,-28.66667zM128.88802,107.40202c-3.95253,0.06178 -7.10882,3.312 -7.05469,7.26465v7.16667h-7.16667c-2.58456,-0.03655 -4.98858,1.32136 -6.29153,3.55376c-1.30295,2.2324 -1.30295,4.99342 0,7.22582c1.30295,2.2324 3.70697,3.59031 6.29153,3.55376h7.16667v7.16667c-0.03655,2.58456 1.32136,4.98858 3.55376,6.29153c2.2324,1.30295 4.99342,1.30295 7.22582,0c2.2324,-1.30295 3.59031,-3.70697 3.55376,-6.29153v-7.16667h7.16667c2.58456,0.03655 4.98858,-1.32136 6.29153,-3.55376c1.30295,-2.2324 1.30295,-4.99342 0,-7.22582c-1.30295,-2.2324 -3.70697,-3.59031 -6.29153,-3.55376h-7.16667v-7.16667c0.02653,-1.93715 -0.73227,-3.80254 -2.10349,-5.17112c-1.37122,-1.36858 -3.23806,-2.12378 -5.17516,-2.09353z"></path></g><g id="subtracted-icon" fill="#ffffff" stroke="none"><path d="M121.83333,14.33333c7.88333,0 14.33333,6.45 14.33333,14.33333l0,43.70405c-1.24452,-0.09287 -2.50156,-0.14014 -3.76943,-0.14014c-27.66333,0 -50.16667,22.50333 -50.16667,50.16667c0,13.73667 5.54882,26.20099 14.52291,35.26943h-60.92015c-7.88333,0 -14.33333,-6.45 -14.33333,-14.33333v-114.66667c0,-7.88333 6.45,-14.33333 14.33333,-14.33333zM120.68809,171.18447c-7.57533,-1.5062 -14.44096,-5.02741 -20.03262,-9.96585c5.75447,4.71364 12.57194,8.17552 20.03262,9.96585z"></path></g><g stroke="none"><g id="Layer_1" fill="#cccccc"><path d="M132.39724,86.56391c-19.78717,0 -35.83333,16.04617 -35.83333,35.83333c0,19.78717 16.04617,35.83333 35.83333,35.83333c19.78717,0 35.83333,-16.04617 35.83333,-35.83333c0,-19.78717 -16.04617,-35.83333 -35.83333,-35.83333zM146.73057,129.56391h-7.16667v7.16667c0,3.956 -3.21067,7.16667 -7.16667,7.16667c-3.956,0 -7.16667,-3.21067 -7.16667,-7.16667v-7.16667h-7.16667c-3.956,0 -7.16667,-3.21067 -7.16667,-7.16667c0,-3.956 3.21067,-7.16667 7.16667,-7.16667h7.16667v-7.16667c0,-3.956 3.21067,-7.16667 7.16667,-7.16667c3.956,0 7.16667,3.21067 7.16667,7.16667v7.16667h7.16667c3.956,0 7.16667,3.21067 7.16667,7.16667c0,3.956 -3.21067,7.16667 -7.16667,7.16667z"></path></g><g id="Rounded" fill="#000000" opacity="0"><path d="M82.23057,122.39724c0,-27.66333 22.50333,-50.16667 50.16667,-50.16667c27.66333,0 50.16667,22.50333 50.16667,50.16667c0,27.66333 -22.50333,50.16667 -50.16667,50.16667c-27.66333,0 -50.16667,-22.50333 -50.16667,-50.16667z"></path></g></g><path d="M96.56391,158.23057v-71.66667h71.66667v71.66667z" id="overlay-drag" fill="#ff0000" stroke="none" opacity="0"></path></g></svg>