<svg xmlns="http://www.w3.org/2000/svg" x="0px" y="0px"
width="80" height="80"
viewBox="0 0 172 172"
style=" fill:#000000;"><g fill="none" fill-rule="nonzero" stroke="none" stroke-width="1" stroke-linecap="butt" stroke-linejoin="miter" stroke-miterlimit="10" stroke-dasharray="" stroke-dashoffset="0" font-family="none" font-weight="none" font-size="none" text-anchor="none" style="mix-blend-mode: normal"><path d="M0,172v-172h172v172z" fill="none" stroke="none"></path><g id="original-icon" fill="#000000" stroke="none" opacity="0" visibility="hidden"><path d="M86,15.05c-39.15914,0 -70.95,31.79086 -70.95,70.95c0,39.15914 31.79086,70.95 70.95,70.95c39.15914,0 70.95,-31.79086 70.95,-70.95c0,-39.15914 -31.79086,-70.95 -70.95,-70.95zM86,19.35c36.83524,0 66.65,29.81476 66.65,66.65c0,36.83524 -29.81476,66.65 -66.65,66.65c-36.83524,0 -66.65,-29.81476 -66.65,-66.65c0,-36.83524 29.81476,-66.65 66.65,-66.65zM86,25.8c-1.18741,0 -2.15,0.96259 -2.15,2.15c0,1.18741 0.96259,2.15 2.15,2.15c1.18741,0 2.15,-0.96259 2.15,-2.15c0,-1.18741 -0.96259,-2.15 -2.15,-2.15zM74.67471,26.91699c-1.18741,0 -2.15,0.96259 -2.15,2.15c0,1.18741 0.96259,2.15 2.15,2.15c1.18741,0 2.15,-0.96259 2.15,-2.15c0,-1.18741 -0.96259,-2.15 -2.15,-2.15zM97.32529,26.91699c-1.18741,0 -2.15,0.96259 -2.15,2.15c0,1.18741 0.96259,2.15 2.15,2.15c1.18741,0 2.15,-0.96259 2.15,-2.15c0,-1.18741 -0.96259,-2.15 -2.15,-2.15zM63.78613,30.21758c-1.18741,0 -2.15,0.96259 -2.15,2.15c0,1.18741 0.96259,2.15 2.15,2.15c1.18741,0 2.15,-0.96259 2.15,-2.15c0,-1.18741 -0.96259,-2.15 -2.15,-2.15zM108.21387,30.21758c-1.18741,0 -2.15,0.96259 -2.15,2.15c0,1.18741 0.96259,2.15 2.15,2.15c1.18741,0 2.15,-0.96259 2.15,-2.15c0,-1.18741 -0.96259,-2.15 -2.15,-2.15zM53.75,35.58418c-1.18741,0 -2.15,0.96259 -2.15,2.15c0,1.18741 0.96259,2.15 2.15,2.15c1.18741,0 2.15,-0.96259 2.15,-2.15c0,-1.18741 -0.96259,-2.15 -2.15,-2.15zM118.25,35.58418c-1.18741,0 -2.15,0.96259 -2.15,2.15c0,1.18741 0.96259,2.15 2.15,2.15c1.18741,0 2.15,-0.96259 2.15,-2.15c0,-1.18741 -0.96259,-2.15 -2.15,-2.15zM44.95264,42.80264c-1.18741,0 -2.15,0.96259 -2.15,2.15c0,1.18741 0.96259,2.15 2.15,2.15c1.18741,0 2.15,-0.96259 2.15,-2.15c0,-1.18741 -0.96259,-2.15 -2.15,-2.15zM127.04736,42.80264c-1.18741,0 -2.15,0.96259 -2.15,2.15c0,1.18741 0.96259,2.15 2.15,2.15c1.18741,0 2.15,-0.96259 2.15,-2.15c0,-1.18741 -0.96259,-2.15 -2.15,-2.15zM37.73418,51.6c-1.18741,0 -2.15,0.96259 -2.15,2.15c0,1.18741 0.96259,2.15 2.15,2.15c1.18741,0 2.15,-0.96259 2.15,-2.15c0,-1.18741 -0.96259,-2.15 -2.15,-2.15zM134.26582,51.6c-1.18741,0 -2.15,0.96259 -2.15,2.15c0,1.18741 0.96259,2.15 2.15,2.15c1.18741,0 2.15,-0.96259 2.15,-2.15c0,-1.18741 -0.96259,-2.15 -2.15,-2.15zM81.7,57.71406l-33.42998,28.28594l33.42998,28.28594v-19.68594h38.7v-17.2h-2.15h-36.55zM32.36758,61.63613c-1.18741,0 -2.15,0.96259 -2.15,2.15c0,1.18741 0.96259,2.15 2.15,2.15c1.18741,0 2.15,-0.96259 2.15,-2.15c0,-1.18741 -0.96259,-2.15 -2.15,-2.15zM139.63242,61.63613c-1.18741,0 -2.15,0.96259 -2.15,2.15c0,1.18741 0.96259,2.15 2.15,2.15c1.18741,0 2.15,-0.96259 2.15,-2.15c0,-1.18741 -0.96259,-2.15 -2.15,-2.15zM77.4,66.98594v14.71406h38.7v8.6h-38.7v14.71406l-22.47002,-19.01406zM29.06699,72.52471c-1.18741,0 -2.15,0.96259 -2.15,2.15c0,1.18741 0.96259,2.15 2.15,2.15c1.18741,0 2.15,-0.96259 2.15,-2.15c0,-1.18741 -0.96259,-2.15 -2.15,-2.15zM142.93301,72.52471c-1.18741,0 -2.15,0.96259 -2.15,2.15c0,1.18741 0.96259,2.15 2.15,2.15c1.18741,0 2.15,-0.96259 2.15,-2.15c0,-1.18741 -0.96259,-2.15 -2.15,-2.15zM27.95,83.85c-1.18741,0 -2.15,0.96259 -2.15,2.15c0,1.18741 0.96259,2.15 2.15,2.15c1.18741,0 2.15,-0.96259 2.15,-2.15c0,-1.18741 -0.96259,-2.15 -2.15,-2.15zM144.05,83.85c-1.18741,0 -2.15,0.96259 -2.15,2.15c0,1.18741 0.96259,2.15 2.15,2.15c1.18741,0 2.15,-0.96259 2.15,-2.15c0,-1.18741 -0.96259,-2.15 -2.15,-2.15zM29.06699,95.17529c-1.18741,0 -2.15,0.96259 -2.15,2.15c0,1.18741 0.96259,2.15 2.15,2.15c1.18741,0 2.15,-0.96259 2.15,-2.15c0,-1.18741 -0.96259,-2.15 -2.15,-2.15zM142.93301,95.17529c-1.18741,0 -2.15,0.96259 -2.15,2.15c0,1.18741 0.96259,2.15 2.15,2.15c1.18741,0 2.15,-0.96259 2.15,-2.15c0,-1.18741 -0.96259,-2.15 -2.15,-2.15zM32.36758,106.06387c-1.18741,0 -2.15,0.96259 -2.15,2.15c0,1.18741 0.96259,2.15 2.15,2.15c1.18741,0 2.15,-0.96259 2.15,-2.15c0,-1.18741 -0.96259,-2.15 -2.15,-2.15zM139.63242,106.06387c-1.18741,0 -2.15,0.96259 -2.15,2.15c0,1.18741 0.96259,2.15 2.15,2.15c1.18741,0 2.15,-0.96259 2.15,-2.15c0,-1.18741 -0.96259,-2.15 -2.15,-2.15zM37.73418,116.1c-1.18741,0 -2.15,0.96259 -2.15,2.15c0,1.18741 0.96259,2.15 2.15,2.15c1.18741,0 2.15,-0.96259 2.15,-2.15c0,-1.18741 -0.96259,-2.15 -2.15,-2.15zM134.26582,116.1c-1.18741,0 -2.15,0.96259 -2.15,2.15c0,1.18741 0.96259,2.15 2.15,2.15c1.18741,0 2.15,-0.96259 2.15,-2.15c0,-1.18741 -0.96259,-2.15 -2.15,-2.15zM44.95264,124.89736c-1.18741,0 -2.15,0.96259 -2.15,2.15c0,1.18741 0.96259,2.15 2.15,2.15c1.18741,0 2.15,-0.96259 2.15,-2.15c0,-1.18741 -0.96259,-2.15 -2.15,-2.15zM127.04736,124.89736c-1.18741,0 -2.15,0.96259 -2.15,2.15c0,1.18741 0.96259,2.15 2.15,2.15c1.18741,0 2.15,-0.96259 2.15,-2.15c0,-1.18741 -0.96259,-2.15 -2.15,-2.15zM53.75,132.11582c-1.18741,0 -2.15,0.96259 -2.15,2.15c0,1.18741 0.96259,2.15 2.15,2.15c1.18741,0 2.15,-0.96259 2.15,-2.15c0,-1.18741 -0.96259,-2.15 -2.15,-2.15zM118.25,132.11582c-1.18741,0 -2.15,0.96259 -2.15,2.15c0,1.18741 0.96259,2.15 2.15,2.15c1.18741,0 2.15,-0.96259 2.15,-2.15c0,-1.18741 -0.96259,-2.15 -2.15,-2.15zM63.78613,137.48242c-1.18741,0 -2.15,0.96259 -2.15,2.15c0,1.18741 0.96259,2.15 2.15,2.15c1.18741,0 2.15,-0.96259 2.15,-2.15c0,-1.18741 -0.96259,-2.15 -2.15,-2.15zM108.21387,137.48242c-1.18741,0 -2.15,0.96259 -2.15,2.15c0,1.18741 0.96259,2.15 2.15,2.15c1.18741,0 2.15,-0.96259 2.15,-2.15c0,-1.18741 -0.96259,-2.15 -2.15,-2.15zM74.67471,140.78301c-1.18741,0 -2.15,0.96259 -2.15,2.15c0,1.18741 0.96259,2.15 2.15,2.15c1.18741,0 2.15,-0.96259 2.15,-2.15c0,-1.18741 -0.96259,-2.15 -2.15,-2.15zM97.32529,140.78301c-1.18741,0 -2.15,0.96259 -2.15,2.15c0,1.18741 0.96259,2.15 2.15,2.15c1.18741,0 2.15,-0.96259 2.15,-2.15c0,-1.18741 -0.96259,-2.15 -2.15,-2.15zM86,141.9c-1.18741,0 -2.15,0.96259 -2.15,2.15c0,1.18741 0.96259,2.15 2.15,2.15c1.18741,0 2.15,-0.96259 2.15,-2.15c0,-1.18741 -0.96259,-2.15 -2.15,-2.15z"></path></g><g id="subtracted-icon" fill="#000000" stroke="none"><path d="M156.95,86c0,39.15914 -31.79086,70.95 -70.95,70.95c-39.15914,0 -70.95,-31.79086 -70.95,-70.95c0,-39.15914 31.79086,-70.95 70.95,-70.95c39.15914,0 70.95,31.79086 70.95,70.95zM19.35,86c0,36.83524 29.81476,66.65 66.65,66.65c36.83524,0 66.65,-29.81476 66.65,-66.65c0,-36.83524 -29.81476,-66.65 -66.65,-66.65c-36.83524,0 -66.65,29.81476 -66.65,66.65zM88.15,27.95c0,1.18741 -0.96259,2.15 -2.15,2.15c-1.18741,0 -2.15,-0.96259 -2.15,-2.15c0,-1.18741 0.96259,-2.15 2.15,-2.15c1.18741,0 2.15,0.96259 2.15,2.15zM76.82471,29.06699c0,1.18741 -0.96259,2.15 -2.15,2.15c-1.18741,0 -2.15,-0.96259 -2.15,-2.15c0,-1.18741 0.96259,-2.15 2.15,-2.15c1.18741,0 2.15,0.96259 2.15,2.15zM99.47529,29.06699c0,1.18741 -0.96259,2.15 -2.15,2.15c-1.18741,0 -2.15,-0.96259 -2.15,-2.15c0,-1.18741 0.96259,-2.15 2.15,-2.15c1.18741,0 2.15,0.96259 2.15,2.15zM65.93613,32.36758c0,1.18741 -0.96259,2.15 -2.15,2.15c-1.18741,0 -2.15,-0.96259 -2.15,-2.15c0,-1.18741 0.96259,-2.15 2.15,-2.15c1.18741,0 2.15,0.96259 2.15,2.15zM110.36387,32.36758c0,1.18741 -0.96259,2.15 -2.15,2.15c-1.18741,0 -2.15,-0.96259 -2.15,-2.15c0,-1.18741 0.96259,-2.15 2.15,-2.15c1.18741,0 2.15,0.96259 2.15,2.15zM55.9,37.73418c0,1.18741 -0.96259,2.15 -2.15,2.15c-1.18741,0 -2.15,-0.96259 -2.15,-2.15c0,-1.18741 0.96259,-2.15 2.15,-2.15c1.18741,0 2.15,0.96259 2.15,2.15zM120.4,37.73418c0,1.18741 -0.96259,2.15 -2.15,2.15c-1.18741,0 -2.15,-0.96259 -2.15,-2.15c0,-1.18741 0.96259,-2.15 2.15,-2.15c1.18741,0 2.15,0.96259 2.15,2.15zM47.10264,44.95264c0,1.18741 -0.96259,2.15 -2.15,2.15c-1.18741,0 -2.15,-0.96259 -2.15,-2.15c0,-1.18741 0.96259,-2.15 2.15,-2.15c1.18741,0 2.15,0.96259 2.15,2.15zM129.19736,44.95264c0,1.18741 -0.96259,2.15 -2.15,2.15c-1.18741,0 -2.15,-0.96259 -2.15,-2.15c0,-1.18741 0.96259,-2.15 2.15,-2.15c1.18741,0 2.15,0.96259 2.15,2.15zM39.88418,53.75c0,1.18741 -0.96259,2.15 -2.15,2.15c-1.18741,0 -2.15,-0.96259 -2.15,-2.15c0,-1.18741 0.96259,-2.15 2.15,-2.15c1.18741,0 2.15,0.96259 2.15,2.15zM136.41582,53.75c0,1.18741 -0.96259,2.15 -2.15,2.15c-1.18741,0 -2.15,-0.96259 -2.15,-2.15c0,-1.18741 0.96259,-2.15 2.15,-2.15c1.18741,0 2.15,0.96259 2.15,2.15zM81.7,114.28594l-0.06336,-0.05361c0.02123,-0.01567 0.04235,-0.03145 0.06336,-0.04736zM34.51758,63.78613c0,1.18741 -0.96259,2.15 -2.15,2.15c-1.18741,0 -2.15,-0.96259 -2.15,-2.15c0,-1.18741 0.96259,-2.15 2.15,-2.15c1.18741,0 2.15,0.96259 2.15,2.15zM141.78242,63.78613c0,1.18741 -0.96259,2.15 -2.15,2.15c-1.18741,0 -2.15,-0.96259 -2.15,-2.15c0,-1.18741 0.96259,-2.15 2.15,-2.15c1.18741,0 2.15,0.96259 2.15,2.15zM31.21699,74.67471c0,1.18741 -0.96259,2.15 -2.15,2.15c-1.18741,0 -2.15,-0.96259 -2.15,-2.15c0,-1.18741 0.96259,-2.15 2.15,-2.15c1.18741,0 2.15,0.96259 2.15,2.15zM145.08301,74.67471c0,1.18741 -0.96259,2.15 -2.15,2.15c-1.18741,0 -2.15,-0.96259 -2.15,-2.15c0,-1.18741 0.96259,-2.15 2.15,-2.15c1.18741,0 2.15,0.96259 2.15,2.15zM30.1,86c0,1.18741 -0.96259,2.15 -2.15,2.15c-1.18741,0 -2.15,-0.96259 -2.15,-2.15c0,-1.18741 0.96259,-2.15 2.15,-2.15c1.18741,0 2.15,0.96259 2.15,2.15zM146.2,86c0,1.18741 -0.96259,2.15 -2.15,2.15c-1.18741,0 -2.15,-0.96259 -2.15,-2.15c0,-1.18741 0.96259,-2.15 2.15,-2.15c1.18741,0 2.15,0.96259 2.15,2.15zM31.21699,97.32529c0,1.18741 -0.96259,2.15 -2.15,2.15c-1.18741,0 -2.15,-0.96259 -2.15,-2.15c0,-1.18741 0.96259,-2.15 2.15,-2.15c1.18741,0 2.15,0.96259 2.15,2.15zM145.08301,97.32529c0,1.18741 -0.96259,2.15 -2.15,2.15c-1.18741,0 -2.15,-0.96259 -2.15,-2.15c0,-1.18741 0.96259,-2.15 2.15,-2.15c1.18741,0 2.15,0.96259 2.15,2.15zM34.51758,108.21387c0,1.18741 -0.96259,2.15 -2.15,2.15c-1.18741,0 -2.15,-0.96259 -2.15,-2.15c0,-1.18741 0.96259,-2.15 2.15,-2.15c1.18741,0 2.15,0.96259 2.15,2.15zM141.78242,108.21387c0,1.18741 -0.96259,2.15 -2.15,2.15c-1.18741,0 -2.15,-0.96259 -2.15,-2.15c0,-1.18741 0.96259,-2.15 2.15,-2.15c1.18741,0 2.15,0.96259 2.15,2.15zM39.88418,118.25c0,1.18741 -0.96259,2.15 -2.15,2.15c-1.18741,0 -2.15,-0.96259 -2.15,-2.15c0,-1.18741 0.96259,-2.15 2.15,-2.15c1.18741,0 2.15,0.96259 2.15,2.15zM136.41582,118.25c0,1.18741 -0.96259,2.15 -2.15,2.15c-1.18741,0 -2.15,-0.96259 -2.15,-2.15c0,-1.18741 0.96259,-2.15 2.15,-2.15c1.18741,0 2.15,0.96259 2.15,2.15zM47.10264,127.04736c0,1.18741 -0.96259,2.15 -2.15,2.15c-1.18741,0 -2.15,-0.96259 -2.15,-2.15c0,-1.18741 0.96259,-2.15 2.15,-2.15c1.18741,0 2.15,0.96259 2.15,2.15zM129.19736,127.04736c0,1.18741 -0.96259,2.15 -2.15,2.15c-1.18741,0 -2.15,-0.96259 -2.15,-2.15c0,-1.18741 0.96259,-2.15 2.15,-2.15c1.18741,0 2.15,0.96259 2.15,2.15zM55.9,134.26582c0,1.18741 -0.96259,2.15 -2.15,2.15c-1.18741,0 -2.15,-0.96259 -2.15,-2.15c0,-1.18741 0.96259,-2.15 2.15,-2.15c1.18741,0 2.15,0.96259 2.15,2.15zM120.4,134.26582c0,1.18741 -0.96259,2.15 -2.15,2.15c-1.18741,0 -2.15,-0.96259 -2.15,-2.15c0,-1.18741 0.96259,-2.15 2.15,-2.15c1.18741,0 2.15,0.96259 2.15,2.15zM65.93613,139.63242c0,1.18741 -0.96259,2.15 -2.15,2.15c-1.18741,0 -2.15,-0.96259 -2.15,-2.15c0,-1.18741 0.96259,-2.15 2.15,-2.15c1.18741,0 2.15,0.96259 2.15,2.15zM110.36387,139.63242c0,1.18741 -0.96259,2.15 -2.15,2.15c-1.18741,0 -2.15,-0.96259 -2.15,-2.15c0,-1.18741 0.96259,-2.15 2.15,-2.15c1.18741,0 2.15,0.96259 2.15,2.15zM76.82471,142.93301c0,1.18741 -0.96259,2.15 -2.15,2.15c-1.18741,0 -2.15,-0.96259 -2.15,-2.15c0,-1.18741 0.96259,-2.15 2.15,-2.15c1.18741,0 2.15,0.96259 2.15,2.15zM99.47529,142.93301c0,1.18741 -0.96259,2.15 -2.15,2.15c-1.18741,0 -2.15,-0.96259 -2.15,-2.15c0,-1.18741 0.96259,-2.15 2.15,-2.15c1.18741,0 2.15,0.96259 2.15,2.15zM88.15,144.05c0,1.18741 -0.96259,2.15 -2.15,2.15c-1.18741,0 -2.15,-0.96259 -2.15,-2.15c0,-1.18741 0.96259,-2.15 2.15,-2.15c1.18741,0 2.15,0.96259 2.15,2.15z"></path></g><g stroke="none"><g id="Layer_1" fill="#59bc5d"><path d="M118.64751,74.64768h-38.7v-12.9c0,-0.8686 -0.52245,-1.65335 -1.32655,-1.9866c-0.80195,-0.33325 -1.7286,-0.1505 -2.3435,0.46655l-23.65,23.65c-0.84065,0.84065 -0.84065,2.19945 0,3.0401l23.65,23.65c0.41065,0.41065 0.96105,0.62995 1.52005,0.62995c0.27735,0 0.55685,-0.05375 0.82345,-0.1634c0.8041,-0.33325 1.32655,-1.118 1.32655,-1.9866v-12.9h38.7c1.18895,0 2.15,-0.9632 2.15,-2.15v-17.2c0,-1.1868 -0.96105,-2.15 -2.15,-2.15zM116.49751,91.84768h-40.85v12.0099l-18.4599,-18.4599l18.4599,-18.4599v12.0099h40.85z"></path></g><g id="Layer_1" fill="#000000" opacity="0"><path d="M118.64724,70.34724h-34.4v-8.6c0,-2.6187 -1.56305,-4.9579 -3.9818,-5.9598c-0.78475,-0.32465 -1.6168,-0.4902 -2.4682,-0.4902c-1.7243,0 -3.3454,0.67295 -4.56445,1.892l-23.6457,23.64785c-1.21905,1.2169 -1.88985,2.838 -1.88985,4.56015c0,1.72215 0.6708,3.34325 1.88985,4.56015l23.65,23.65c1.2169,1.21905 2.838,1.88985 4.56015,1.88985c0.84925,0 1.67915,-0.16555 2.46605,-0.4902c2.4209,-1.0019 3.98395,-3.3411 3.98395,-5.9598v-8.6h34.4c3.5561,0 6.45,-2.8939 6.45,-6.45v-17.2c0,-3.5561 -2.8939,-6.45 -6.45,-6.45z"></path></g></g><path d="M51.99697,111.19768v-51.60088h68.80054v51.60088z" id="overlay-drag" fill="#ff0000" stroke="none" opacity="0"></path></g></svg>