<svg xmlns="http://www.w3.org/2000/svg" x="0px" y="0px"
width="26" height="26"
viewBox="0 0 172 172"
style=" fill:#000000;"><g fill="none" fill-rule="nonzero" stroke="none" stroke-width="1" stroke-linecap="butt" stroke-linejoin="miter" stroke-miterlimit="10" stroke-dasharray="" stroke-dashoffset="0" font-family="none" font-weight="none" font-size="none" text-anchor="none" style="mix-blend-mode: normal"><path d="M0,172v-172h172v172z" fill="#000000"></path><g fill="#ffffff"><path d="M148.43269,-0.41346c-2.48077,0 -4.83233,1.11118 -6.82212,3.10096l-4.75481,4.54808l27.90865,27.90865l4.54808,-4.75481c3.97957,-3.97956 3.97957,-9.87139 0,-13.85096l-13.85096,-13.85096c-1.98978,-1.98978 -4.54808,-3.10096 -7.02885,-3.10096zM132.30769,11.16346l-7.23558,5.99519l29.76923,29.76923l6.61538,-6.61538zM121.14423,21.91346l-59.74519,59.125c-0.3101,0.25842 -0.56851,0.51683 -0.82692,0.82692l-0.41346,0.20673c-0.72356,0.82692 -1.21454,1.83474 -1.44712,2.89423l-8.0625,28.32212c-0.69772,2.27404 -0.07753,4.78065 1.60217,6.46034c1.67969,1.67969 4.18629,2.29988 6.46033,1.60216l28.32212,-8.0625c1.91226,-0.4393 3.51442,-1.75721 4.34135,-3.51442l58.71154,-58.09135l-11.16346,-11.99038v0.62019l-7.85577,-7.85577h0.62019zM5.375,26.46154c-3.15264,0.59435 -5.42668,3.38522 -5.375,6.61538v132.30769c0,3.64363 2.97176,6.61538 6.61538,6.61538h132.30769c3.64363,0 6.61538,-2.97176 6.61538,-6.61538v-72.76923c0.02584,-2.3774 -1.21454,-4.59976 -3.28185,-5.8143c-2.06731,-1.18871 -4.59976,-1.18871 -6.66706,0c-2.06731,1.21454 -3.30769,3.4369 -3.28185,5.8143v66.15385h-119.07692v-119.07692h66.15385c2.3774,0.02584 4.59976,-1.21454 5.8143,-3.28185c1.18871,-2.06731 1.18871,-4.59976 0,-6.66706c-1.21454,-2.06731 -3.4369,-3.30769 -5.8143,-3.28185h-72.76923c-0.20673,0 -0.41346,0 -0.62019,0c-0.20673,0 -0.41346,0 -0.62019,0zM70.28846,91.375l9.09615,0.62019l0.62019,9.92308l-9.09615,2.6875l-3.51442,-3.51442z"></path></g></g></svg>