<svg xmlns="http://www.w3.org/2000/svg" x="0px" y="0px"
width="24" height="24"
viewBox="0 0 172 172"
style=" fill:#000000;"><g fill="none" fill-rule="nonzero" stroke="none" stroke-width="1" stroke-linecap="butt" stroke-linejoin="miter" stroke-miterlimit="10" stroke-dasharray="" stroke-dashoffset="0" font-family="none" font-weight="none" font-size="none" text-anchor="none" style="mix-blend-mode: normal"><path d="M0,172v-172h172v172z" fill="#000000" stroke="none"></path><g id="original-icon" fill="#ffffff" stroke="none" opacity="0" visibility="hidden"><path d="M28.59668,21.43001c-2.07387,0.00045 -4.04588,0.89917 -5.40678,2.46407c-1.3609,1.5649 -1.97725,3.64255 -1.6899,5.69641v85.07617c0,1.90633 0.75228,3.72689 2.09961,5.06706l28.03678,28.03679c1.60081,2.09794 4.22496,3.14653 6.83073,2.72949h41.86621v-14.33333h-35.83333v-71.66667h71.66667v15.13118l14.33333,13.78743v-34.88151c0.44527,-2.61882 -0.59438,-5.26914 -2.7015,-6.88672c-0.01396,-0.00938 -0.02796,-0.01871 -0.04199,-0.02799l-28.02279,-28.02279c-1.34017,-1.34733 -3.16072,-2.09961 -5.06706,-2.09961h-85.16016c-0.30148,-0.04263 -0.60537,-0.06601 -0.90983,-0.06999zM45.96745,35.83333h65.73177l14.33333,14.33333h-65.73177zM35.83333,45.96745l14.33333,14.33333v65.73177l-14.33333,-14.33333zM114.66667,78.83333v71.66667l16.29297,-15.49511l14.57129,33.57975l14.66927,-6.92871l-14.78125,-32.65593h21.37402z"></path></g><g id="subtracted-icon" fill="#ffffff" stroke="none"><path d="M29.50651,21.5h85.16016c1.90633,0 3.72689,0.75228 5.06706,2.09961l28.02279,28.02279c0.01403,0.00928 0.02803,0.01861 0.04199,0.02799c2.10711,1.61758 3.14677,4.2679 2.7015,6.88672v17.05906c-4.49994,-1.74177 -9.31382,-2.85324 -14.33333,-3.22611v-7.87006h-71.66667v71.66667l19.64382,0c1.47141,5.16625 3.75011,9.99239 6.69101,14.33333h-32.3677c-2.60577,0.41704 -5.22992,-0.63155 -6.83073,-2.72949l-28.03678,-28.03679c-1.34733,-1.34017 -2.09961,-3.16072 -2.09961,-5.06706v-85.07617c-0.28735,-2.05387 0.32901,-4.13152 1.6899,-5.69641c1.3609,-1.5649 3.33291,-2.46361 5.40678,-2.46407c0.30446,0.00398 0.60835,0.02736 0.90983,0.06999zM60.30078,50.16667h65.73177l-14.33333,-14.33333h-65.73177zM35.83333,111.69922l14.33333,14.33333v-65.73177l-14.33333,-14.33333z"></path></g><g stroke="none"><g id="Filled_3_" fill="#ffffff"><path d="M160.51207,127.84391c0.344,-1.77017 0.55183,-3.58333 0.55183,-5.44667c0,-1.86333 -0.20783,-3.6765 -0.55183,-5.44667l5.7835,-4.29283c0.73817,-0.55183 0.95317,-1.5695 0.48733,-2.365l-6.708,-11.62433c-0.45867,-0.7955 -1.44767,-1.12517 -2.29333,-0.75967l-6.708,2.9025c-2.71617,-2.35067 -5.85517,-4.18533 -9.32383,-5.38933l-0.8385,-7.25267c-0.1075,-0.91733 -0.8815,-1.60533 -1.806,-1.60533h-13.416c-0.9245,0 -1.6985,0.688 -1.806,1.60533l-0.8385,7.25267c-3.46867,1.204 -6.60767,3.03867 -9.32383,5.38933l-6.708,-2.9025c-0.84567,-0.3655 -1.83467,-0.03583 -2.29333,0.75967l-6.708,11.62433c-0.45867,0.7955 -0.25083,1.81317 0.48733,2.365l5.7835,4.29283c-0.344,1.77017 -0.55183,3.58333 -0.55183,5.44667c0,1.86333 0.20783,3.6765 0.55183,5.44667l-5.7835,4.29283c-0.73817,0.55183 -0.95317,1.5695 -0.48733,2.365l6.708,11.61717c0.45867,0.80267 1.44767,1.12517 2.29333,0.75967l6.708,-2.9025c2.71617,2.35783 5.85517,4.1925 9.32383,5.3965l0.8385,7.25267c0.1075,0.91733 0.8815,1.60533 1.806,1.60533h13.416c0.9245,0 1.6985,-0.688 1.806,-1.60533l0.8385,-7.25267c3.46867,-1.204 6.60767,-3.03867 9.32383,-5.38933l6.708,2.9025c0.84567,0.3655 1.83467,0.03583 2.29333,-0.75967l6.708,-11.61717c0.45867,-0.80267 0.25083,-1.82033 -0.48733,-2.365zM132.39724,136.73057c-7.912,0 -14.33333,-6.42133 -14.33333,-14.33333c0,-7.91917 6.42133,-14.33333 14.33333,-14.33333c7.912,0 14.33333,6.41417 14.33333,14.33333c0,7.912 -6.42133,14.33333 -14.33333,14.33333z"></path></g><g id="Filled_3_" fill="#000000" opacity="0"><path d="M182.56391,122.39724c0,27.70633 -22.46033,50.16667 -50.16667,50.16667c-27.70633,0 -50.16667,-22.46033 -50.16667,-50.16667c0,-27.70633 22.46033,-50.16667 50.16667,-50.16667c27.70633,0 50.16667,22.46033 50.16667,50.16667z"></path></g></g><path d="M97.76581,158.23057v-71.66667h69.26287v71.66667z" id="overlay-drag" fill="#ff0000" stroke="none" opacity="0"></path></g></svg>