<svg xmlns="http://www.w3.org/2000/svg" x="0px" y="0px"
width="32" height="32"
viewBox="0 0 172 172"
style=" fill:#000000;"><g fill="none" fill-rule="nonzero" stroke="none" stroke-width="1" stroke-linecap="butt" stroke-linejoin="miter" stroke-miterlimit="10" stroke-dasharray="" stroke-dashoffset="0" font-family="none" font-weight="none" font-size="none" text-anchor="none" style="mix-blend-mode: normal"><path d="M0,172v-172h172v172z" fill="none" stroke="none"></path><g stroke="none"><path d="M149.75467,144.007l-2.37217,7.7615c-1.10008,3.59767 -4.7945,5.73333 -8.46025,4.89125l-92.321,-21.2205l10.49917,-34.25667l88.37217,34.04525c3.51167,1.34733 5.37858,5.1815 4.28208,8.77917z" fill="#424242"></path><circle cx="11.02" cy="32.001" transform="scale(3.58333,3.58333)" r="7" fill="#78909c"></circle><path d="M85.88533,132.66217c-0.34758,0 -0.69875,-0.05017 -1.04633,-0.15767l-9.44208,-2.88817c-1.892,-0.57692 -2.95983,-2.58 -2.37933,-4.47558c0.57692,-1.892 2.58717,-2.97058 4.472,-2.37933l9.44208,2.88817c1.892,0.57692 2.95983,2.58 2.37933,4.47558c-0.473,1.54442 -1.892,2.537 -3.42567,2.537z" fill="#bf360c"></path><path d="M50.77583,92.27083c-0.1075,3.58333 -0.82417,13.33 -4.47917,24.6175c-3.655,11.25167 -8.815,19.52917 -10.82167,22.53917c-1.25417,-0.215 -2.4725,-0.50167 -3.72667,-0.89583c-1.14667,-0.35833 -2.2575,-0.82417 -3.29667,-1.36167c0.07167,-0.28667 0.215,-0.5375 0.39417,-0.78833c0.07167,-0.07167 6.45,-8.85083 10.6425,-21.715c4.12083,-12.64917 4.15667,-23.36333 4.15667,-23.82917c0,-0.3225 0.03583,-0.60917 0.1075,-0.89583c1.14667,0.215 2.32917,0.50167 3.47583,0.86c1.25417,0.39417 2.43667,0.89583 3.5475,1.46917z" fill="#90a4ae"></path><path d="M57.37992,63.04517l45.56208,-26.7675c0.08958,0 -11.01517,-14.43725 -11.01517,-14.43725l-43.50883,26.12967c-4.12083,2.47608 -5.47175,7.81167 -3.03867,11.954c2.451,4.17817 7.82242,5.57925 12.00058,3.12108" fill="#e39d36"></path><path d="M43.06808,62.69042l47.22117,-28.05033c0.08958,0 -11.01517,-14.44083 -11.01517,-14.44083l-45.16792,27.40533c-4.12083,2.47608 -5.47533,7.81883 -3.03867,11.96117c2.451,4.18175 7.82242,5.58283 12.00058,3.12467" fill="#eda740"></path><path d="M32.60475,59.5335l44.27925,-26.30167c0.10033,0 -0.10392,0 0,0l19.866,9.76817l10.28058,13.07917c0,0 -23.50308,5.66883 -25.06183,5.90892c-5.19225,0.80267 -9.96883,3.76967 -10.95067,8.92608c-1.35092,7.13083 4.17458,13.38017 11.1155,13.21892c0,0 34.22083,-6.59692 47.4075,-9.55675c2.72333,-0.61275 5.31408,-1.65908 7.68983,-3.12467l16.84883,-10.37733c0.05375,-0.08958 0.1505,-39.41667 0.1505,-39.41667l-14.64508,9.70367l-54.13342,-18.80175c-4.22117,-2.3005 -9.34533,-2.19658 -13.46617,0.29742l-49.34608,29.91008c-4.5795,2.75917 -6.0845,8.686 -3.3755,13.29775c2.72333,4.63683 8.69317,6.192 13.34075,3.46867" fill="#ffb74d"></path><path d="M80.95108,66.134c-3.63708,0.17558 -6.44642,3.25367 -6.27442,6.88717c0.172,3.63708 3.25725,6.44283 6.88717,6.27442c3.6335,-0.172 3.79475,-2.96342 3.62633,-6.60408c-0.172,-3.62992 -0.60558,-6.73308 -4.23908,-6.5575z" fill="#ffcc80"></path></g><g stroke="none"><g id="Слой_1"><path d="M48.16667,152c-19.70833,0 -35.83333,-16.125 -35.83333,-35.83333c0,-19.70833 16.125,-35.83333 35.83333,-35.83333c19.70833,0 35.83333,16.125 35.83333,35.83333c0,19.70833 -16.125,35.83333 -35.83333,35.83333z" fill="#ff3d00"></path><rect x="7.44186" y="30.4186" transform="scale(3.58333,3.58333)" width="12" height="4" fill="#ffffff"></rect></g></g><path d="M12.33333,152v-71.66667h71.66667v71.66667z" id="overlay-drag" fill="#ff0000" stroke="none" opacity="0"></path></g></svg>