<svg xmlns="http://www.w3.org/2000/svg" x="0px" y="0px"
width="26" height="26"
viewBox="0 0 172 172"
style=" fill:#000000;"><g fill="none" fill-rule="nonzero" stroke="none" stroke-width="1" stroke-linecap="butt" stroke-linejoin="miter" stroke-miterlimit="10" stroke-dasharray="" stroke-dashoffset="0" font-family="none" font-weight="none" font-size="none" text-anchor="none" style="mix-blend-mode: normal"><path d="M0,172v-172h172v172z" fill="#000000" stroke="none"></path><g id="original-icon" fill="#ffffff" stroke="none" opacity="0" visibility="hidden"><path d="M107.29327,6.61538c-1.13702,0.20673 -2.22235,0.69772 -3.10096,1.44712l-13.23077,11.16346l-2.6875,-3.10096c-1.29206,-1.49879 -3.20433,-2.32572 -5.16827,-2.27404c-1.65385,0.12921 -3.20433,0.85276 -4.34135,2.06731l-3.92788,3.92788c-0.49099,-0.05168 -0.95613,-0.05168 -1.44712,0h-15.91827c-0.20673,0 -0.41346,0 -0.62019,0c-1.11118,0.12921 -2.19651,0.56851 -3.10096,1.24038l-36.38462,25.63462c-0.07753,0.07753 -0.12921,0.12921 -0.20673,0.20673c-0.07753,0 -0.12921,0 -0.20673,0c-0.36178,0.18089 -0.69772,0.38762 -1.03365,0.62019c-0.07753,0.07753 -0.12921,0.12921 -0.20673,0.20673c-0.07753,0.07753 -0.12921,0.12921 -0.20673,0.20673c-0.12921,0.05169 -0.28426,0.12921 -0.41346,0.20673c-0.3101,0.3101 -0.59435,0.67188 -0.82692,1.03365c0,0.07753 0,0.12921 0,0.20673c-0.07753,0.12921 -0.15504,0.28426 -0.20673,0.41346c-0.07753,0.07753 -0.12921,0.12921 -0.20673,0.20673l-13.23077,26.46154c-1.29207,2.55829 -0.80108,5.63342 1.21454,7.67488c2.04147,2.01563 5.11658,2.50662 7.67488,1.21454l3.72115,-1.86058v62.01923c0,3.64363 2.97176,6.61538 6.61538,6.61538h99.23077c0.07753,0 0.12921,0 0.20673,0c0.41346,-0.02584 0.82692,-0.10337 1.24038,-0.20673c0.20673,-0.05168 0.41346,-0.12921 0.62019,-0.20673c0.82692,-0.25841 1.60217,-0.67187 2.27404,-1.24038c0.15505,-0.12921 0.28426,-0.25841 0.41346,-0.41346c0.15505,-0.12921 0.28426,-0.25841 0.41346,-0.41346l0.41346,-0.62019c0.15505,-0.12921 0.28426,-0.25841 0.41346,-0.41346l25.63462,-32.04327c0.93029,-1.16286 1.44712,-2.63581 1.44712,-4.13462v-30.18269l17.98558,-17.98558c2.09315,-2.19651 2.42909,-5.50421 0.82692,-8.0625l-18.8125,-31.21635c-0.05168,-0.12921 -0.12921,-0.28426 -0.20673,-0.41346c0,-0.07753 0,-0.12921 0,-0.20673l-0.20673,-0.41346c-0.15504,-0.4393 -0.36178,-0.85276 -0.62019,-1.24038c-0.23257,-0.36178 -0.51683,-0.72356 -0.82692,-1.03365c-0.07753,0 -0.12921,0 -0.20673,0c-0.07753,-0.07753 -0.12921,-0.12921 -0.20673,-0.20673c0,-0.07753 0,-0.12921 0,-0.20673c-0.07753,0 -0.12921,0 -0.20673,0c-0.07753,-0.07753 -0.12921,-0.12921 -0.20673,-0.20673c-0.12921,-0.07753 -0.28426,-0.15504 -0.41346,-0.20673c-0.07753,0 -0.12921,0 -0.20673,0c-0.12921,-0.15504 -0.25841,-0.28426 -0.41346,-0.41346c-0.07753,0 -0.12921,0 -0.20673,0c-0.07753,-0.07753 -0.12921,-0.12921 -0.20673,-0.20673c-0.12921,0 -0.28426,0 -0.41346,0c-0.07753,-0.07753 -0.12921,-0.12921 -0.20673,-0.20673c-0.12921,0 -0.28426,0 -0.41346,0c-0.07753,-0.07753 -0.12921,-0.12921 -0.20673,-0.20673c-0.12921,0 -0.28426,0 -0.41346,0c-0.07753,0 -0.12921,0 -0.20673,0c-0.12921,0 -0.28426,0 -0.41346,0c-0.07753,0 -0.12921,0 -0.20673,0h-21.70673l-10.54327,-11.16346c-1.36959,-1.47296 -3.35937,-2.22235 -5.375,-2.06731c-0.20673,0 -0.41346,0 -0.62019,0zM107.91346,22.32692l15.71154,16.53846l-7.44231,7.44231h-1.44712l-14.88462,-17.15865zM83.10577,30.18269l14.05769,16.125h-30.18269zM59.53846,33.07692h1.86058l-13.23077,13.23077h-7.44231zM26.46154,59.53846h83.51923c0.80108,0.28426 1.62801,0.4393 2.48077,0.41346v78.97115h-86v-65.32692c0.02584,-0.28426 0.02584,-0.54267 0,-0.82692zM51.0625,66.15385c-3.64363,0.51683 -6.20192,3.90204 -5.6851,7.54567c0.51683,3.64363 3.90204,6.20192 7.54567,5.6851h33.07692c2.3774,0.02584 4.59976,-1.21454 5.8143,-3.28185c1.18871,-2.06731 1.18871,-4.59976 0,-6.66706c-1.21454,-2.06731 -3.4369,-3.30769 -5.8143,-3.28185h-33.07692c-0.20673,0 -0.41346,0 -0.62019,0c-0.20673,0 -0.41346,0 -0.62019,0c-0.20673,0 -0.41346,0 -0.62019,0z"></path></g><g id="subtracted-icon" fill="#ffffff" stroke="none"><path d="M107.91346,6.61538c2.01563,-0.15504 4.00541,0.59435 5.375,2.06731l10.54327,11.16346c0.07753,0 21.83594,0 21.91346,0c0.12921,0 0.28426,0 0.41346,0c0.07753,0 0.12921,0 0.20673,0c0.12921,0 0.28426,0 0.41346,0c0.07753,0.07753 0.12921,0.12921 0.20673,0.20673c0.12921,0 0.28426,0 0.41346,0c0.07753,0.07753 0.12921,0.12921 0.20673,0.20673c0.12921,0 0.28426,0 0.41346,0c0.07753,0.07753 0.12921,0.12921 0.20673,0.20673c0.07753,0 0.12921,0 0.20673,0c0.15505,0.12921 0.28426,0.25842 0.41346,0.41346c0.07753,0 0.12921,0 0.20673,0c0.12921,0.05169 0.28426,0.12921 0.41346,0.20673c0.07753,0.07753 0.12921,0.12921 0.20673,0.20673c0.07753,0 0.12921,0 0.20673,0c0,0.07753 0,0.12921 0,0.20673c0.07753,0.07753 0.12921,0.12921 0.20673,0.20673c0.07753,0 0.12921,0 0.20673,0c0.3101,0.3101 0.59435,0.67188 0.82692,1.03365c0.25842,0.38762 0.46515,0.80108 0.62019,1.24038l0.20673,0.41346c0,0.07753 0,0.12921 0,0.20673c0.07753,0.12921 0.15505,0.28426 0.20673,0.41346l18.8125,31.21635c1.60217,2.55829 1.26622,5.86599 -0.82692,8.0625l-7.59275,7.59275c-0.5387,-0.04123 -1.07811,-0.06185 -1.61752,-0.06185c-5.29231,0 -9.92308,1.98462 -13.89231,5.95385l-34.57531,34.11431v-51.9404c-0.85276,0.02584 -1.67969,-0.12921 -2.48077,-0.41346h-83.51923v13.23077c0.02584,0.28426 0.02584,0.54267 0,0.82692v65.32692l65.1707,0l-4.26799,13.23077c-29.06134,0 -67.46989,0 -67.5181,0c-3.64363,0 -6.61538,-2.97176 -6.61538,-6.61538v-62.01923l-3.72115,1.86058c-2.55829,1.29207 -5.63341,0.80108 -7.67488,-1.21454c-2.01563,-2.04146 -2.50662,-5.11658 -1.21454,-7.67488l13.23077,-26.46154c0.07753,-0.07753 0.12921,-0.12921 0.20673,-0.20673c0.05169,-0.12921 0.12921,-0.28426 0.20673,-0.41346c0,-0.07753 0,-0.12921 0,-0.20673c0.23257,-0.36178 0.51683,-0.72356 0.82692,-1.03365c0.12921,-0.07753 0.28426,-0.15504 0.41346,-0.20673c0.07753,-0.07753 0.12921,-0.12921 0.20673,-0.20673c0.07753,-0.07753 0.12921,-0.12921 0.20673,-0.20673c0.33594,-0.23257 0.67188,-0.4393 1.03365,-0.62019c0.07753,0 0.12921,0 0.20673,0c0.07753,-0.07753 0.12921,-0.12921 0.20673,-0.20673l36.38462,-25.63462c0.90445,-0.67187 1.98978,-1.11118 3.10096,-1.24038c0.20673,0 16.33173,0 16.53846,0c0.49099,-0.05168 0.95613,-0.05168 1.44712,0l3.92788,-3.92788c1.13702,-1.21454 2.6875,-1.9381 4.34135,-2.06731c1.96394,-0.05168 3.87621,0.77524 5.16827,2.27404l2.6875,3.10096l13.23077,-11.16346c0.87861,-0.7494 1.96394,-1.24038 3.10096,-1.44712c0.20673,0 0.41346,0 0.62019,0zM99.85096,29.14904l14.88462,17.15865h1.44712l7.44231,-7.44231l-15.71154,-16.53846zM66.98077,46.30769h30.18269l-14.05769,-16.125zM40.72596,46.30769h7.44231l13.23077,-13.23077h-1.86058zM51.68269,66.15385c0.20673,0 0.41346,0 0.62019,0c0.20673,0 33.49038,0 33.69712,0c2.3774,-0.02584 4.59976,1.21454 5.8143,3.28185c1.18871,2.06731 1.18871,4.59976 0,6.66706c-1.21454,2.06731 -3.4369,3.30769 -5.8143,3.28185h-33.07692c-3.64363,0.51683 -7.02885,-2.04147 -7.54567,-5.6851c-0.51683,-3.64363 2.04147,-7.02885 5.6851,-7.54567c0.20673,0 0.41346,0 0.62019,0z"></path></g><g stroke="none"><g id="Windows_x5F_8" fill="#cccccc"><path d="M175.54615,105.56263l-7.93846,7.27692l-18.52308,-18.52308l7.93846,-7.27692c2.64615,-2.64615 7.27692,-2.64615 9.92308,0l9.26154,9.26154c1.98462,3.30769 1.98462,7.27692 -0.66154,9.26154zM141.80769,100.93186l20.50769,20.50769l-36.38462,35.72308c-0.66154,0.66154 -0.66154,0.66154 -1.32308,0.66154l-23.15385,6.61538h-0.66154c-0.66154,0 -1.32308,0 -1.98462,-0.66154c-0.66154,-0.66154 -1.32308,-1.98462 -0.66154,-2.64615l7.27692,-22.49231c0,-0.66154 0.66154,-1.32308 1.32308,-1.98462zM121.96154,153.1934l-1.98462,-9.92308l-9.92308,-1.98462l-3.96923,12.56923l2.64615,2.64615z"></path></g><g id="Windows_x5F_8" fill="#000000" opacity="0"><path d="M186.06762,88.36263v0l-0.66154,-1.32308l-9.26154,-9.26154c-4.63077,-3.96923 -9.92308,-5.95385 -15.21538,-5.95385c-5.29231,0 -9.92308,1.98462 -13.89231,5.95385l-49.61538,48.95385c-2.64615,2.64615 -3.96923,5.29231 -4.63077,8.6l-6.61538,20.50769c-0.66154,1.98462 -1.32308,3.96923 -1.32308,5.95385c0,3.96923 1.98462,7.93846 4.63077,11.24615c3.30769,2.64615 6.61538,4.63077 11.24615,4.63077h0.66154h1.98462l1.98462,-0.66154l21.83077,-6.61538c3.96923,-0.66154 5.95385,-2.64615 7.93846,-3.96923l49.61538,-50.93846c7.27692,-7.27692 7.93846,-19.18462 1.32308,-27.12308z"></path></g></g><path d="M97.87214,164.43955v-79.38462h79.75022v79.38462z" id="overlay-drag" fill="#ff0000" stroke="none" opacity="0"></path></g></svg>