<svg xmlns="http://www.w3.org/2000/svg" x="0px" y="0px"
width="24" height="24"
viewBox="0 0 172 172"
style=" fill:#000000;"><g fill="none" fill-rule="nonzero" stroke="none" stroke-width="1" stroke-linecap="butt" stroke-linejoin="miter" stroke-miterlimit="10" stroke-dasharray="" stroke-dashoffset="0" font-family="none" font-weight="none" font-size="none" text-anchor="none" style="mix-blend-mode: normal"><path d="M0,172v-172h172v172z" fill="none" stroke="none"></path><path d="M86,172c-47.49649,0 -86,-38.50351 -86,-86v0c0,-47.49649 38.50351,-86 86,-86v0c47.49649,0 86,38.50351 86,86v0c0,47.49649 -38.50351,86 -86,86z" fill="#cbcaca" stroke="none"></path><g stroke="none"><path d="M41.40741,63.7037v61.31481h89.18519v-61.31481h11.14815v61.31481c0,6.13148 -5.01667,11.14815 -11.14815,11.14815h-89.18519c-6.13148,0 -11.14815,-5.01667 -11.14815,-11.14815v-61.31481z" fill="#757575"></path><path d="M111.08333,63.7037l-25.08333,-27.87037l-25.08333,27.87037h16.72222v47.37963h16.72222v-47.37963z" fill="#ffffff"></path></g><g stroke="none"><g id="IOS_copy"><path d="M172,136.16667c0,19.70833 -16.125,35.83333 -35.83333,35.83333c-19.70833,0 -35.83333,-16.125 -35.83333,-35.83333c0,-19.70833 16.125,-35.83333 35.83333,-35.83333c19.70833,0 35.83333,16.125 35.83333,35.83333" fill="#43a047"></path><path d="M157.66667,129h-14.33333v-14.33333h-14.33333v14.33333h-14.33333v14.33333h14.33333v14.33333h14.33333v-14.33333h14.33333z" fill="#ffffff"></path></g></g><path d="M100.33333,172v-71.66667h71.66667v71.66667z" id="overlay-drag" fill="#ff0000" stroke="none" opacity="0"></path></g></svg>