<svg xmlns="http://www.w3.org/2000/svg" x="0px" y="0px"
width="25" height="25"
viewBox="0 0 172 172"
style=" fill:#000000;"><g fill="none" fill-rule="nonzero" stroke="none" stroke-width="1" stroke-linecap="butt" stroke-linejoin="miter" stroke-miterlimit="10" stroke-dasharray="" stroke-dashoffset="0" font-family="none" font-weight="none" font-size="none" text-anchor="none" style="mix-blend-mode: normal"><path d="M0,172v-172h172v172z" fill="#000000" stroke="none"></path><g id="original-icon" fill="#ffffff" stroke="none" opacity="0" visibility="hidden"><path d="M0,17.2v137.6h172v-137.6zM6.88,24.08h158.24v89.44h-36.73812l-24.08,-17.2h-20.3175l-14.05563,-14.05562l-16.74312,3.35937l-14.80813,-22.22562l-31.4975,31.4975zM129,44.72c-8.50594,0 -15.48,6.97406 -15.48,15.48c0,8.50594 6.97406,15.48 15.48,15.48c8.50594,0 15.48,-6.97406 15.48,-15.48c0,-8.50594 -6.97406,-15.48 -15.48,-15.48zM129,51.6c4.78375,0 8.6,3.81625 8.6,8.6c0,4.78375 -3.81625,8.6 -8.6,8.6c-4.78375,0 -8.6,-3.81625 -8.6,-8.6c0,-4.78375 3.81625,-8.6 8.6,-8.6zM37.3025,74.20188l12.71188,19.05437l17.65687,-3.52062l13.46438,13.46437h20.9625l24.08,17.2h38.94187v27.52h-158.24v-43.29562z"></path></g><g id="subtracted-icon" fill="#ffffff" stroke="none"><path d="M172,17.2v137.6l-2.91538,0l-6.54439,-6.88h2.57977v-6.11587c1.48342,-4.14447 2.22513,-8.5862 2.22513,-13.02793c0,-5.40729 -1.15213,-10.57086 -3.22189,-15.25621h0.99676v-89.44h-158.24v70.81563l31.4975,-31.4975l14.80813,22.22562l16.74312,-3.35937l14.05563,14.05562h20.3175l2.30162,1.64402c-2.10394,1.54716 -4.04719,3.30313 -5.79781,5.23598h-19.67007l-13.46438,-13.46437l-17.65687,3.52062l-12.71188,-19.05437l-30.4225,30.4225v43.29562h89.20408c1.45386,2.48129 3.17907,4.7887 5.1334,6.88h-101.21747v-137.6zM144.48,60.2c0,8.50594 -6.97406,15.48 -15.48,15.48c-8.50594,0 -15.48,-6.97406 -15.48,-15.48c0,-8.50594 6.97406,-15.48 15.48,-15.48c8.50594,0 15.48,6.97406 15.48,15.48zM120.4,60.2c0,4.78375 3.81625,8.6 8.6,8.6c4.78375,0 8.6,-3.81625 8.6,-8.6c0,-4.78375 -3.81625,-8.6 -8.6,-8.6c-4.78375,0 -8.6,3.81625 -8.6,8.6z"></path></g><g stroke="none"><g fill="#cccccc"><g id="Слой_2" font-family="-apple-system, system-ui, &quot;Helvetica Neue&quot;, &quot;Segoe UI&quot;, &quot;Fira Sans&quot;, Roboto, Oxygen, Ubuntu, &quot;Droid Sans&quot;, Arial, sans-serif" font-weight="400" font-size="16" text-anchor="start" visibility="hidden"></g><g id="Android_x5F_4" font-family="-apple-system, system-ui, &quot;Helvetica Neue&quot;, &quot;Segoe UI&quot;, &quot;Fira Sans&quot;, Roboto, Oxygen, Ubuntu, &quot;Droid Sans&quot;, Arial, sans-serif" font-weight="400" font-size="16" text-anchor="start" visibility="hidden"></g><g id="Android_x5F_5" font-family="-apple-system, system-ui, &quot;Helvetica Neue&quot;, &quot;Segoe UI&quot;, &quot;Fira Sans&quot;, Roboto, Oxygen, Ubuntu, &quot;Droid Sans&quot;, Arial, sans-serif" font-weight="400" font-size="16" text-anchor="start" visibility="hidden"></g><g id="Windows_x5F_8" font-family="-apple-system, system-ui, &quot;Helvetica Neue&quot;, &quot;Segoe UI&quot;, &quot;Fira Sans&quot;, Roboto, Oxygen, Ubuntu, &quot;Droid Sans&quot;, Arial, sans-serif" font-weight="400" font-size="16" text-anchor="start" visibility="hidden"></g><g id="Windows_x5F_10" font-family="-apple-system, system-ui, &quot;Helvetica Neue&quot;, &quot;Segoe UI&quot;, &quot;Fira Sans&quot;, Roboto, Oxygen, Ubuntu, &quot;Droid Sans&quot;, Arial, sans-serif" font-weight="400" font-size="16" text-anchor="start" visibility="hidden"></g><g id="Color" font-family="-apple-system, system-ui, &quot;Helvetica Neue&quot;, &quot;Segoe UI&quot;, &quot;Fira Sans&quot;, Roboto, Oxygen, Ubuntu, &quot;Droid Sans&quot;, Arial, sans-serif" font-weight="400" font-size="16" text-anchor="start" visibility="hidden"></g><g id="IOS" font-family="-apple-system, system-ui, &quot;Helvetica Neue&quot;, &quot;Segoe UI&quot;, &quot;Fira Sans&quot;, Roboto, Oxygen, Ubuntu, &quot;Droid Sans&quot;, Arial, sans-serif" font-weight="400" font-size="16" text-anchor="start" visibility="hidden"></g><g id="IOS_copy"><path d="M172,167.01264l-17.28952,-17.28952c4.32238,-5.31985 6.9823,-12.30216 6.9823,-19.94944c0.33249,-16.95703 -13.96461,-31.25413 -31.25413,-31.25413c-17.28952,0 -31.58662,14.2971 -31.58662,31.58662c0,17.28952 14.2971,31.58662 31.58662,31.58662c7.64729,0 14.2971,-2.65993 19.94944,-6.9823l17.28952,17.28952zM105.50186,130.10617c0,-13.63212 11.30468,-24.9368 24.9368,-24.9368c13.63212,0 24.9368,11.30468 24.9368,24.9368c0,13.63212 -11.30468,24.9368 -24.9368,24.9368c-13.63212,0 -24.9368,-11.30468 -24.9368,-24.9368z"></path></g></g><g fill="#000000" opacity="0"><g id="IOS" font-family="-apple-system, system-ui, &quot;Helvetica Neue&quot;, &quot;Segoe UI&quot;, &quot;Fira Sans&quot;, Roboto, Oxygen, Ubuntu, &quot;Droid Sans&quot;, Arial, sans-serif" font-weight="400" font-size="16" text-anchor="start" visibility="hidden"></g><g id="IOS_copy"><path d="M162.35777,147.72818c3.32491,-5.65234 4.98736,-12.30216 4.98736,-18.95197c0,-20.94691 -17.28952,-38.23643 -38.23643,-38.23643c-20.94691,0 -38.23643,17.28952 -38.23643,38.23643c0,20.94691 17.28952,38.23643 38.23643,38.23643c6.64981,0 13.29963,-1.66245 18.95197,-4.98736l13.29963,13.29963l4.65487,4.65487l4.65487,-4.65487l4.65487,-4.65487l4.65487,-4.65487l-4.65487,-4.65487z"></path></g></g></g><path d="M98.85204,172v-73.48045h73.14796v73.48045z" id="overlay-drag" fill="#ff0000" stroke="none" opacity="0"></path></g></svg>