<svg xmlns="http://www.w3.org/2000/svg" x="0px" y="0px"
width="25" height="25"
viewBox="0 0 172 172"
style=" fill:#000000;"><g fill="none" fill-rule="nonzero" stroke="none" stroke-width="1" stroke-linecap="butt" stroke-linejoin="miter" stroke-miterlimit="10" stroke-dasharray="" stroke-dashoffset="0" font-family="none" font-weight="none" font-size="none" text-anchor="none" style="mix-blend-mode: normal"><path d="M0,172v-172h172v172z" fill="#ffffff" stroke="none"></path><g id="original-icon" fill="#000000" stroke="none" opacity="0" visibility="hidden"><path d="M63.64,27.52c-7.33687,0 -14.2975,5.71094 -15.91,13.0075l-1.72,7.6325h124.27l1.3975,-6.1275c0.83313,-3.77594 0.06719,-7.56531 -2.15,-10.32c-2.19031,-2.72781 -5.4825,-4.1925 -9.245,-4.1925zM44.505,55.04l-16.6625,74.9275c-0.83312,3.77594 -0.05375,7.56531 2.15,10.32c2.16344,2.6875 5.53625,4.1925 9.245,4.1925h96.6425c7.33688,0 14.28406,-5.71094 15.91,-13.0075l16.985,-76.4325zM0,61.92v6.88h33.6475l1.505,-6.88zM63.855,68.8h81.3775l-5.9125,24.08h-81.485zM0,89.44v6.88h27.52l1.505,-6.88zM0,116.96v6.88h21.3925l1.505,-6.88z"></path></g><g id="subtracted-icon" fill="#000000" stroke="none"><path d="M160.2825,27.52c3.7625,0 7.05469,1.46469 9.245,4.1925c2.21719,2.75469 2.98313,6.54406 2.15,10.32l-1.3975,6.1275h-124.27l1.72,-7.6325c1.6125,-7.29656 8.57313,-13.0075 15.91,-13.0075zM168.775,55.04l-11.00623,49.52803l-17.41119,-13.05839c-0.1904,-0.15232 -0.38924,-0.29621 -0.59511,-0.43167l5.47003,-22.27796h-81.3775l-6.02,24.08h68.60041c-1.69094,1.90182 -2.58549,4.39264 -2.58549,6.88346v7.2221c-13.41248,1.71955 -24.41759,7.2221 -32.67142,15.81984c-6.23272,6.74151 -9.97203,14.47098 -12.20973,21.67459h-39.73127c-3.70875,0 -7.08156,-1.505 -9.245,-4.1925c-2.20375,-2.75469 -2.98312,-6.54406 -2.15,-10.32l16.6625,-74.9275zM35.1525,61.92l-1.505,6.88h-33.6475v-6.88zM29.025,89.44l-1.505,6.88h-27.52v-6.88zM22.8975,116.96l-1.505,6.88h-21.3925v-6.88z"></path></g><g stroke="none"><g fill="#252529"><g id="IOS" font-family="-apple-system, system-ui, &quot;Helvetica Neue&quot;, &quot;Segoe UI&quot;, &quot;Fira Sans&quot;, Roboto, Oxygen, Ubuntu, &quot;Droid Sans&quot;, Arial, sans-serif" font-weight="400" font-size="16" text-anchor="start"></g><g id="IOS_copy"><path d="M86.02258,172c-1.71955,0 -3.4391,-1.37564 -3.4391,-3.09519c0,-1.03173 -1.37564,-25.10541 13.75639,-41.26916c8.25383,-8.94165 19.94676,-13.75639 34.39097,-14.44421v-13.41248c0,-1.37564 0.68782,-2.40737 2.06346,-3.09519c1.03173,-0.68782 2.40737,-0.34391 3.4391,0.34391l34.39097,25.79323c1.03173,0.34391 1.37564,1.37564 1.37564,2.75128c0,1.03173 -0.68782,2.06346 -1.37564,2.75128l-34.39097,25.10541c-1.03173,0.68782 -2.40737,1.03173 -3.4391,0.34391c-1.03173,-0.68782 -1.71955,-1.71955 -1.71955,-3.09519v-13.06857c-40.58134,1.37564 -41.61307,29.92014 -41.61307,30.95187c0,2.06346 -1.37564,3.4391 -3.4391,3.4391zM137.60903,106.65716v9.97338c0,2.06346 -1.37564,3.4391 -3.4391,3.4391c-14.1003,0 -25.10541,4.12692 -32.67142,12.38075c-3.4391,3.78301 -5.84646,7.90992 -7.56601,12.03684c7.56601,-7.56601 19.94676,-13.75639 40.58134,-13.75639c2.06346,0 3.4391,1.37564 3.4391,3.4391v9.97338l25.10541,-18.57112z"></path></g></g><g fill="#000000" opacity="0"><g id="IOS" font-family="-apple-system, system-ui, &quot;Helvetica Neue&quot;, &quot;Segoe UI&quot;, &quot;Fira Sans&quot;, Roboto, Oxygen, Ubuntu, &quot;Droid Sans&quot;, Arial, sans-serif" font-weight="400" font-size="16" text-anchor="start" visibility="hidden"></g><g id="IOS_copy"><path d="M174.74855,117.30286l-34.39097,-25.79323c-1.71955,-1.37564 -4.12692,-2.06346 -6.19037,-2.06346c-1.71955,0 -3.09519,0.34391 -4.47083,1.03173c-3.78301,1.71955 -5.84646,5.50255 -5.84646,9.28556v7.2221c-13.41248,1.71955 -24.41759,7.2221 -32.67142,15.81984c-16.85157,18.22721 -15.47594,43.67653 -15.47594,46.42781c0.34391,5.50255 4.81474,9.62947 10.31729,9.62947v0h0.34391c5.50255,0 9.97338,-4.47083 9.97338,-9.97338c0,-2.06346 1.37564,-19.94676 27.51277,-23.72977v5.84646c0,3.78301 2.06346,7.56601 5.50255,9.28556c1.37564,0.68782 3.09519,1.03173 4.81474,1.03173c2.06346,0 4.47083,-0.68782 6.19037,-2.06346l34.39097,-25.10541c2.75128,-2.06346 4.12692,-5.15865 4.12692,-8.25383c0,-3.78301 -1.37564,-6.87819 -4.12692,-8.59774zM135.19893,96.66828c0,-0.34391 0,-0.34391 0,0c0,-0.34391 0,-0.34391 0,0zM134.16721,96.32437v0v0zM134.16721,154.10119v0v0zM134.85502,153.75728c0.34391,0 0.34391,0 0,0c0.34391,0 0.34391,0 0,0z"></path></g></g></g><path d="M82.55093,172v-75.69114h89.44907v75.69114z" id="overlay-drag" fill="#ff0000" stroke="none" opacity="0"></path></g></svg>