<svg xmlns="http://www.w3.org/2000/svg" x="0px" y="0px"
width="24" height="24"
viewBox="0 0 172 172"
style=" fill:#000000;"><g transform=""><g fill="none" fill-rule="nonzero" stroke="none" stroke-width="1" stroke-linecap="butt" stroke-linejoin="miter" stroke-miterlimit="10" stroke-dasharray="" stroke-dashoffset="0" font-family="none" font-weight="none" font-size="none" text-anchor="none" style="mix-blend-mode: normal"><path d="M0,172v-172h172v172z" fill="none"></path><g id="original-icon" fill="#000000" opacity="0" visibility="hidden"><path d="M86,21.5l-43,43h-28.66667v43h28.66667l43,43zM150.5,35.83333c-3.95804,0 -7.16667,3.20863 -7.16667,7.16667c0,3.95804 3.20863,7.16667 7.16667,7.16667c3.95804,0 7.16667,-3.20863 7.16667,-7.16667c0,-3.95804 -3.20863,-7.16667 -7.16667,-7.16667zM129,50.16667c-3.95804,0 -7.16667,3.20863 -7.16667,7.16667c0,3.95804 3.20863,7.16667 7.16667,7.16667c3.95804,0 7.16667,-3.20863 7.16667,-7.16667c0,-3.95804 -3.20863,-7.16667 -7.16667,-7.16667zM107.5,64.5c-3.95804,0 -7.16667,3.20863 -7.16667,7.16667c0,3.95804 3.20863,7.16667 7.16667,7.16667c3.95804,0 7.16667,-3.20863 7.16667,-7.16667c0,-3.95804 -3.20863,-7.16667 -7.16667,-7.16667zM129,78.83333c-3.95804,0 -7.16667,3.20863 -7.16667,7.16667c0,3.95804 3.20863,7.16667 7.16667,7.16667c3.95804,0 7.16667,-3.20863 7.16667,-7.16667c0,-3.95804 -3.20863,-7.16667 -7.16667,-7.16667zM150.5,78.83333c-3.95804,0 -7.16667,3.20863 -7.16667,7.16667c0,3.95804 3.20863,7.16667 7.16667,7.16667c3.95804,0 7.16667,-3.20863 7.16667,-7.16667c0,-3.95804 -3.20863,-7.16667 -7.16667,-7.16667zM107.5,93.16667c-3.95804,0 -7.16667,3.20863 -7.16667,7.16667c0,3.95804 3.20863,7.16667 7.16667,7.16667c3.95804,0 7.16667,-3.20863 7.16667,-7.16667c0,-3.95804 -3.20863,-7.16667 -7.16667,-7.16667zM129,107.5c-3.95804,0 -7.16667,3.20863 -7.16667,7.16667c0,3.95804 3.20863,7.16667 7.16667,7.16667c3.95804,0 7.16667,-3.20863 7.16667,-7.16667c0,-3.95804 -3.20863,-7.16667 -7.16667,-7.16667zM150.5,121.83333c-3.95804,0 -7.16667,3.20863 -7.16667,7.16667c0,3.95804 3.20863,7.16667 7.16667,7.16667c3.95804,0 7.16667,-3.20863 7.16667,-7.16667c0,-3.95804 -3.20863,-7.16667 -7.16667,-7.16667z"></path></g><g id="subtracted-icon" fill="#000000"><path d="M43,107.5h-28.66667v-43h28.66667l43,-43v79.11844c-5.07821,7.85949 -8.00276,17.29827 -8.00276,27.54547c0,6.10107 1.03672,11.91556 2.94745,17.28078zM157.66667,43c0,3.95804 -3.20863,7.16667 -7.16667,7.16667c-3.95804,0 -7.16667,-3.20863 -7.16667,-7.16667c0,-3.95804 3.20863,-7.16667 7.16667,-7.16667c3.95804,0 7.16667,3.20863 7.16667,7.16667zM136.16667,57.33333c0,3.95804 -3.20863,7.16667 -7.16667,7.16667c-3.95804,0 -7.16667,-3.20863 -7.16667,-7.16667c0,-3.95804 3.20863,-7.16667 7.16667,-7.16667c3.95804,0 7.16667,3.20863 7.16667,7.16667zM114.66667,71.66667c0,3.95804 -3.20863,7.16667 -7.16667,7.16667c-3.95804,0 -7.16667,-3.20863 -7.16667,-7.16667c0,-3.95804 3.20863,-7.16667 7.16667,-7.16667c3.95804,0 7.16667,3.20863 7.16667,7.16667zM157.66667,86c0,0.42788 -0.0375,0.84701 -0.10939,1.25427c-3.68703,-2.62669 -7.7599,-4.76133 -12.13071,-6.31603c1.29737,-1.30034 3.09144,-2.10491 5.07343,-2.10491c3.95804,0 7.16667,3.20863 7.16667,7.16667z"></path></g><g><g id="Sharp" fill="#6b6b6b"><path d="M171.16391,161.13058l-12.9,-12.9c3.58333,-5.73333 5.73333,-12.9 5.73333,-20.06667c0,-20.06667 -15.76667,-35.83333 -35.83333,-35.83333c-20.06667,0 -35.83333,15.76667 -35.83333,35.83333c0,20.06667 15.76667,35.83333 35.83333,35.83333c7.16667,0 14.33333,-2.15 20.06667,-5.73333l12.9,12.9zM128.16391,149.66391c-12.18333,0 -21.5,-9.31667 -21.5,-21.5c0,-12.18333 9.31667,-21.5 21.5,-21.5c12.18333,0 21.5,9.31667 21.5,21.5c0,12.18333 -9.31667,21.5 -21.5,21.5z"></path></g><g id="Sharp" fill="#000000" opacity="0"><path d="M185.49724,155.19658v11.868l-18.43267,18.43267h-11.87517l-10.02617,-10.02617c-5.46817,1.8705 -11.25883,2.8595 -16.99933,2.8595c-28.12917,0 -50.16667,-22.0375 -50.16667,-50.16667c0,-28.12917 22.0375,-50.16667 50.16667,-50.16667c28.12917,0 50.16667,22.0375 50.16667,50.16667c0,5.7405 -0.989,11.53833 -2.8595,17.0065z"></path></g></g><path d="" fill="none"></path><path d="" fill="none"></path></g></g></svg>